<svg width="36" height="36" viewBox="0 0 36 36" fill="none" xmlns="http://www.w3.org/2000/svg">
<path d="M8.79699 7.12482L17.8647 11.5396L12.8571 16.7693L12.5188 23.1537L14.0075 16.7693L36 0.46875L33.9699 7.12482L17.3233 19.8257L32.0752 9.77366L30.6541 14.9355L17.1203 24.2404L28.6241 17.1089L26.9323 21.4557L16.9173 28.2477L15.6316 35.7188L9.54135 26.8214C9.83459 23.0632 10.4075 15.5468 10.3534 15.5468C9.86617 15.4924 8.79699 14.4827 8.32331 13.9846V16.226L5.41353 18.3315L5.21053 20.369C4.61504 20.3147 3.8797 20.935 3.58647 21.252L1.28571 18.8069C1.69173 18.2635 1.89474 14.528 1.7594 12.6942C1.65113 11.2271 1.71429 10.4981 1.7594 10.317L0 8.55112L3.92481 9.23031L8.79699 7.12482Z" fill="white"/>
</svg>
