<svg width="24" height="24" viewBox="0 0 24 24" fill="none" xmlns="http://www.w3.org/2000/svg">
<g clip-path="url(#clip0_7002_38179)">
<circle cx="12" cy="12" r="10" fill="#BE5D23"/>
<path d="M14.7002 8.39018L10.9202 13.3902L9.29019 11.2802C9.12708 11.0707 8.88742 10.9345 8.62393 10.9017C8.36044 10.8689 8.09471 10.9421 7.88519 11.1052C7.67567 11.2683 7.53952 11.5079 7.5067 11.7714C7.47389 12.0349 7.54708 12.3007 7.71019 12.5102L10.1402 15.6202C10.2344 15.7394 10.3544 15.8355 10.4913 15.9014C10.6282 15.9672 10.7783 16.001 10.9302 16.0002C11.0829 15.9998 11.2335 15.9645 11.3705 15.8969C11.5074 15.8293 11.627 15.7312 11.7202 15.6102L16.2902 9.61018C16.452 9.398 16.5228 9.13025 16.4872 8.86583C16.4516 8.6014 16.3124 8.36196 16.1002 8.20018C15.888 8.03839 15.6203 7.96752 15.3558 8.00316C15.0914 8.03879 14.852 8.178 14.6902 8.39018H14.7002Z" fill="white"/>
</g>
<defs>
<clipPath id="clip0_7002_38179">
<rect width="24" height="24" fill="white"/>
</clipPath>
</defs>
</svg>
