<svg width="64" height="64" viewBox="0 0 64 64" fill="none" xmlns="http://www.w3.org/2000/svg">
<circle cx="32" cy="32" r="32" fill="#FFF5EF"/>
<g clip-path="url(#clip0_7002_44792)">
<path d="M23.2498 38.7066C24.8373 38.7066 26.3685 39.2379 27.6185 40.2066C28.5185 39.4504 29.5873 38.9379 30.7248 38.7004V30.5566L19.2498 34.6754L20.8998 39.1004C21.5435 38.8816 23.1373 38.7066 23.2498 38.7066Z" fill="#CC5500"/>
<path d="M37.1185 17.9625C37.1185 17.2563 36.5497 16.6875 35.8435 16.6875H28.1622C27.456 16.6875 26.8872 17.2563 26.8872 17.9625V21.775H37.1185V17.9625Z" fill="#CC5500"/>
<path d="M32.3184 27.5805L39.9434 30.2867V27.4117C39.9434 25.7242 38.1372 24.3555 35.9247 24.3555H28.0747C25.8559 24.3555 24.0559 25.7242 24.0559 27.4117V30.243L31.4559 27.5867C31.7372 27.4805 32.0372 27.4805 32.3184 27.5805Z" fill="#CC5500"/>
<path d="M33.2748 38.625C34.4498 38.8 35.5686 39.2688 36.5186 39.9875C37.7373 39.0875 39.2186 38.6 40.7373 38.6C40.8561 38.6 42.4811 38.7813 43.1248 39.0125L44.7373 34.6938L33.2686 30.625V38.625H33.2748Z" fill="#CC5500"/>
<path d="M46.8498 44.8488L43.9561 42.4863C43.1561 41.6988 42.1061 41.23 40.9811 41.1738C39.8311 41.1175 38.7123 41.4863 37.8248 42.2238C37.0811 42.8488 35.9373 42.83 35.1686 42.1863C33.3811 40.6863 30.7498 40.7613 29.0561 42.3613C28.2748 43.0988 27.0748 43.1175 26.2686 42.4113C25.3748 41.6238 24.2248 41.2175 23.0373 41.28C21.8748 41.3363 20.7873 41.8238 19.9811 42.6613L17.1373 45.0863C16.6061 45.5363 16.5373 46.3425 16.9998 46.8675C17.6873 47.655 18.5623 47.2175 18.7811 47.005C18.7811 47.005 21.7436 44.4738 21.7748 44.4425C22.5311 43.6363 23.7748 43.5738 24.6061 44.305C25.4686 45.0613 26.5748 45.4738 27.7186 45.4488C28.8686 45.43 29.9561 44.9863 30.7936 44.1988C31.5623 43.4738 32.7436 43.4425 33.5498 44.1175C34.3686 44.805 35.4061 45.1925 36.4811 45.205C37.5686 45.2175 38.6248 44.8488 39.4436 44.1613C40.2561 43.4863 41.4686 43.5488 42.2061 44.305C42.2373 44.3363 45.2561 46.805 45.2561 46.805C45.7936 47.2425 46.5936 47.1675 47.0311 46.6238C47.4686 46.08 47.3873 45.2863 46.8498 44.8488Z" fill="#CC5500"/>
</g>
<defs>
<clipPath id="clip0_7002_44792">
<rect width="32" height="32" fill="white" transform="translate(16 16)"/>
</clipPath>
</defs>
</svg>
