<svg width="58" height="57" viewBox="0 0 58 57" fill="none" xmlns="http://www.w3.org/2000/svg">
<circle cx="29" cy="28.5" r="28.5" fill="#E6E6E6"/>
<path fill-rule="evenodd" clip-rule="evenodd" d="M29.026 17C26.0147 17 23.2714 17.9947 21.648 18.8073C21.5014 18.8807 21.3647 18.9527 21.2374 19.022C20.9854 19.1593 20.7707 19.2873 20.6 19.4L22.4467 22.1187L23.316 22.4647C26.7134 24.1787 31.2694 24.1787 34.6674 22.4647L35.654 21.9527L37.4 19.4C37.0384 19.164 36.6623 18.951 36.274 18.762C34.6587 17.958 31.9807 17 29.0267 17M24.732 20.0773C24.0781 19.955 23.4322 19.7929 22.798 19.592C24.3187 18.9167 26.5847 18.2 29.0267 18.2C30.718 18.2 32.3174 18.544 33.64 18.98C32.09 19.198 30.436 19.568 28.86 20.0233C27.62 20.382 26.1707 20.3433 24.732 20.0773ZM35.372 23.4533L35.208 23.536C31.4707 25.4213 26.5134 25.4213 22.776 23.536L22.6207 23.4573C17.0054 29.618 12.7187 40.998 29.026 40.998C45.3334 40.998 40.9427 29.4067 35.372 23.4533ZM28.3334 29C27.9797 29 27.6406 29.1405 27.3906 29.3905C27.1405 29.6406 27 29.9797 27 30.3333C27 30.687 27.1405 31.0261 27.3906 31.2761C27.6406 31.5262 27.9797 31.6667 28.3334 31.6667V29ZM29.6667 27.6667V27H28.3334V27.6667C27.6261 27.6667 26.9478 27.9476 26.4477 28.4477C25.9476 28.9478 25.6667 29.6261 25.6667 30.3333C25.6667 31.0406 25.9476 31.7189 26.4477 32.219C26.9478 32.719 27.6261 33 28.3334 33V35.6667C27.7534 35.6667 27.2594 35.2967 27.0754 34.778C27.0481 34.6931 27.004 34.6146 26.9458 34.5471C26.8877 34.4795 26.8165 34.4244 26.7367 34.3848C26.6568 34.3452 26.5698 34.3221 26.4808 34.3167C26.3918 34.3113 26.3027 34.3239 26.2186 34.3536C26.1346 34.3833 26.0574 34.4295 25.9915 34.4896C25.9256 34.5497 25.8725 34.6223 25.8352 34.7033C25.7979 34.7843 25.7772 34.8719 25.7744 34.961C25.7716 35.0501 25.7866 35.1388 25.8187 35.222C26.0026 35.742 26.3432 36.1922 26.7935 36.5106C27.2438 36.829 27.7818 37 28.3334 37V37.6667H29.6667V37C30.3739 37 31.0522 36.719 31.5523 36.219C32.0524 35.7189 32.3334 35.0406 32.3334 34.3333C32.3334 33.6261 32.0524 32.9478 31.5523 32.4477C31.0522 31.9476 30.3739 31.6667 29.6667 31.6667V29C30.2467 29 30.7407 29.37 30.9247 29.8887C30.952 29.9735 30.996 30.052 31.0542 30.1196C31.1124 30.1871 31.1835 30.2423 31.2634 30.2819C31.3433 30.3215 31.4303 30.3446 31.5192 30.35C31.6082 30.3553 31.6974 30.3428 31.7814 30.3131C31.8655 30.2834 31.9427 30.2371 32.0086 30.1771C32.0744 30.117 32.1276 30.0443 32.1649 29.9634C32.2022 29.8824 32.2228 29.7948 32.2257 29.7057C32.2285 29.6166 32.2134 29.5278 32.1814 29.4447C31.9975 28.9247 31.6569 28.4745 31.2066 28.1561C30.7562 27.8377 30.2182 27.6667 29.6667 27.6667ZM29.6667 33V35.6667C30.0203 35.6667 30.3595 35.5262 30.6095 35.2761C30.8596 35.0261 31 34.687 31 34.3333C31 33.9797 30.8596 33.6406 30.6095 33.3905C30.3595 33.1405 30.0203 33 29.6667 33Z" fill="#CC5500"/>
</svg>
