<svg width="57" height="57" viewBox="0 0 57 57" fill="none" xmlns="http://www.w3.org/2000/svg">
<circle cx="28.5" cy="28.5" r="28.5" fill="#E6E6E6"/>
<path fill-rule="evenodd" clip-rule="evenodd" d="M28.3334 17C29.6441 17.0001 30.9187 17.4292 31.9627 18.2218C33.0066 19.0144 33.7624 20.1268 34.1147 21.3893L34.184 21.6627L36.6774 21.04C36.8596 20.9946 37.0494 20.9883 37.2342 21.0214C37.4191 21.0544 37.5949 21.1262 37.7501 21.2319C37.9053 21.3377 38.0364 21.475 38.1349 21.6349C38.2333 21.7949 38.2969 21.9738 38.3214 22.16L38.3334 22.3333V24.7467C39.085 25.4674 39.7011 26.3173 40.152 27.256L40.336 27.6667H41C41.3266 27.6667 41.6418 27.7866 41.8858 28.0036C42.1299 28.2206 42.2858 28.5197 42.324 28.844L42.3334 29V33C42.3334 33.2195 42.2792 33.4355 42.1757 33.629C42.0722 33.8226 41.9226 33.9875 41.74 34.1093L41.596 34.192L40.0387 34.972C39.4011 36.2055 38.4776 37.2684 37.3454 38.072L37 38.304V39.6667C37 39.9932 36.8801 40.3084 36.6631 40.5525C36.4461 40.7965 36.147 40.9525 35.8227 40.9907L35.6667 41H31.6667C31.3401 41 31.0249 40.8801 30.7809 40.663C30.5368 40.446 30.3809 40.147 30.3427 39.8227L30.3334 39.6667H29C29 39.9932 28.8801 40.3084 28.6631 40.5525C28.4461 40.7965 28.147 40.9525 27.8227 40.9907L27.6667 41H23.6667C23.3401 41 23.0249 40.8801 22.7809 40.663C22.5368 40.446 22.3809 40.147 22.3427 39.8227L22.3334 39.6667V38.304C21.3701 37.6882 20.5381 36.8881 19.885 35.9497C19.232 35.0113 18.7708 33.9532 18.528 32.836C17.7418 32.602 17.0464 32.1321 16.5361 31.4899C16.0257 30.8476 15.725 30.0641 15.6747 29.2453L15.6667 29V28.3333C15.6671 27.9935 15.7972 27.6666 16.0305 27.4195C16.2638 27.1724 16.5826 27.0237 16.9219 27.0038C17.2611 26.9839 17.5952 27.0942 17.8558 27.3124C18.1164 27.5305 18.2839 27.8399 18.324 28.1773L18.3334 28.3333V29C18.3334 29.1973 18.376 29.3853 18.4534 29.5533C18.6569 28.353 19.1109 27.2089 19.7858 26.1956C20.4607 25.1822 21.3415 24.3224 22.3707 23.672C22.2761 22.8326 22.3598 21.9828 22.6163 21.178C22.8728 20.3732 23.2963 19.6317 23.8592 19.0018C24.422 18.372 25.1115 17.8682 25.8825 17.5232C26.6535 17.1782 27.4887 16.9999 28.3334 17ZM34.3334 27.6667C33.9797 27.6667 33.6406 27.8071 33.3905 28.0572C33.1405 28.3072 33 28.6464 33 29C33 29.3536 33.1405 29.6928 33.3905 29.9428C33.6406 30.1929 33.9797 30.3333 34.3334 30.3333C34.687 30.3333 35.0261 30.1929 35.2762 29.9428C35.5262 29.6928 35.6667 29.3536 35.6667 29C35.6667 28.6464 35.5262 28.3072 35.2762 28.0572C35.0261 27.8071 34.687 27.6667 34.3334 27.6667ZM28.3334 19.6667C27.5257 19.6667 26.7456 19.9599 26.1379 20.4918C25.5302 21.0237 25.1363 21.7582 25.0294 22.5587C25.6755 22.4086 26.3367 22.333 27 22.3333H31.5027L31.596 22.3107C31.4379 21.5626 31.0274 20.8917 30.4334 20.4103C29.8394 19.9289 29.0979 19.6663 28.3334 19.6667Z" fill="#CC5500"/>
</svg>
