<svg width="57" height="57" viewBox="0 0 57 57" fill="none" xmlns="http://www.w3.org/2000/svg">
<circle cx="28.5" cy="28.5" r="28.5" fill="#E6E6E6"/>
<path d="M28.6055 16.1543C28.5791 16.1543 28.5422 16.1543 28.5105 16.1606C28.268 16.2054 27.9779 16.4296 27.7881 16.9416C27.5877 17.4531 27.5455 18.1825 27.7195 18.9635C27.8988 19.735 28.268 20.3999 28.6793 20.806C29.0801 21.2121 29.4439 21.3228 29.6865 21.2806C29.9396 21.2437 30.2191 21.0117 30.409 20.5054C30.6094 19.9971 30.6621 19.2577 30.4828 18.483C30.2982 17.7026 29.9344 17.0439 29.523 16.6405C29.175 16.2819 28.8533 16.1543 28.6055 16.1543ZM34.691 22.9839C34.1109 22.9997 33.3779 23.1527 32.666 23.4533C31.8434 23.8119 31.2105 24.2917 30.8625 24.7453C30.5145 25.1829 30.4828 25.5152 30.5936 25.7103C30.7096 25.9054 31.0313 26.09 31.6482 26.1163C32.2652 26.1533 33.0984 26.0003 33.9158 25.6523C34.7332 25.299 35.3766 24.8138 35.7246 24.3708C36.0727 23.9331 36.099 23.5904 35.9883 23.3953C35.8775 23.1949 35.5506 23.0208 34.9336 22.9997C34.8492 22.9839 34.7754 22.9839 34.691 22.9839ZM27.5033 27.8829C27.1553 27.8882 26.8389 27.9304 26.5541 28.0042C25.9318 28.1624 25.5732 28.4472 25.4572 28.79C25.3254 29.1328 25.4572 29.5441 25.8686 29.9871C26.301 30.4195 27.0129 30.8361 27.8988 31.0681C28.7795 31.3001 29.6285 31.2949 30.2613 31.1261C30.8994 30.9626 31.258 30.6726 31.374 30.3351C31.4953 29.9923 31.374 29.5863 30.9469 29.138C30.5303 28.7056 29.8184 28.289 28.9324 28.0622C28.4314 27.9304 27.941 27.8777 27.5033 27.8829ZM35.9777 30.9468L32.7188 32.4919C32.9402 32.5025 33.4939 32.5183 33.4939 32.5183L33.842 32.9771L36.7266 31.4742L35.9777 30.9468ZM33.1037 30.9521L30.0768 32.3865C30.3668 32.4023 31.0523 32.4128 31.3266 32.4287L33.9527 31.1841L33.1037 30.9521ZM37.9869 31.5216L34.2691 33.4939L35.0338 34.48L38.9625 32.1281L37.9869 31.5216ZM23.2846 32.0015C23.1249 32.0012 22.9657 32.0189 22.81 32.0542C19.0395 32.9244 16.8141 32.9982 16.1549 32.9982H15.9492V38.6671C15.9492 38.6671 16.5609 38.5775 17.5787 38.5722C19.5457 38.5722 23.0104 38.9097 26.3854 40.882C26.5646 40.9927 26.9496 41.0349 27.4295 41.0349C28.7109 41.0349 30.6568 40.729 31.1051 40.5603C35.6191 38.8675 41.0508 34.2216 41.0508 34.2216L39.3369 32.724C39.3369 32.724 35.1287 35.4081 34.5961 35.6665C29.792 38.0238 25.9002 36.5525 25.9002 36.5525C25.9002 36.5525 32.223 36.7107 34.2533 35.1128L33.0615 33.3199C33.0615 33.3199 28.6951 33.1986 27.1395 32.9929C26.3273 32.8874 24.5713 32.0015 23.2846 32.0015Z" fill="#CC5500"/>
</svg>
