<svg width="57" height="57" viewBox="0 0 57 57" fill="none" xmlns="http://www.w3.org/2000/svg">
<circle cx="28.5" cy="28.5" r="28.5" fill="#E6E6E6"/>
<path fill-rule="evenodd" clip-rule="evenodd" d="M29 41C30.5759 41 32.1363 40.6896 33.5922 40.0866C35.0481 39.4835 36.371 38.5996 37.4853 37.4853C38.5996 36.371 39.4835 35.0481 40.0866 33.5922C40.6896 32.1363 41 30.5759 41 29C41 27.4241 40.6896 25.8637 40.0866 24.4078C39.4835 22.9519 38.5996 21.629 37.4853 20.5147C36.371 19.4004 35.0481 18.5165 33.5922 17.9134C32.1363 17.3104 30.5759 17 29 17C25.8174 17 22.7652 18.2643 20.5147 20.5147C18.2643 22.7652 17 25.8174 17 29C17 32.1826 18.2643 35.2348 20.5147 37.4853C22.7652 39.7357 25.8174 41 29 41ZM30.3333 21.6667C30.3333 21.313 30.1929 20.9739 29.9428 20.7239C29.6928 20.4738 29.3536 20.3333 29 20.3333C28.6464 20.3333 28.3072 20.4738 28.0572 20.7239C27.8071 20.9739 27.6667 21.313 27.6667 21.6667V28.6667C27.6667 29.5867 28.4133 30.3333 29.3333 30.3333H33.6667C34.0203 30.3333 34.3594 30.1929 34.6095 29.9428C34.8595 29.6928 35 29.3536 35 29C35 28.6464 34.8595 28.3072 34.6095 28.0572C34.3594 27.8071 34.0203 27.6667 33.6667 27.6667H30.3333V21.6667Z" fill="#CC5500"/>
</svg>
