<svg width="57" height="57" viewBox="0 0 57 57" fill="none" xmlns="http://www.w3.org/2000/svg">
<circle cx="28.5" cy="28.5" r="28.5" fill="#E6E6E6"/>
<path d="M33.0354 16H23.9637C19.4279 16 18.2999 17.212 18.2999 22.0478V35.5592C18.2999 38.7511 20.0519 39.5071 22.1758 37.2272L22.1878 37.2152C23.1717 36.1712 24.6717 36.2552 25.5236 37.3952L26.7356 39.0151C27.7076 40.2991 29.2795 40.2991 30.2515 39.0151L31.4634 37.3952C32.3274 36.2432 33.8273 36.1592 34.8113 37.2152C36.9472 39.4951 38.6871 38.7391 38.6871 35.5473V22.0478C38.6991 17.212 37.5712 16 33.0354 16ZM31.7994 26.4996H25.1997C24.7077 26.4996 24.2997 26.0916 24.2997 25.5996C24.2997 25.1076 24.7077 24.6997 25.1997 24.6997H31.7994C32.2914 24.6997 32.6994 25.1076 32.6994 25.5996C32.6994 26.0916 32.2914 26.4996 31.7994 26.4996Z" fill="#CC5500"/>
</svg>
