<svg width="57" height="57" viewBox="0 0 57 57" fill="none" xmlns="http://www.w3.org/2000/svg">
<circle cx="28.5" cy="28.5" r="28.5" fill="#E6E6E6"/>
<path d="M30.8796 21.0885L33.9184 16.79C33.4656 16.723 33.0452 16.5744 32.7558 16.2984C32.4529 16.0092 31.9839 15.8438 31.468 15.8438C30.9537 15.8438 30.4847 16.0092 30.1819 16.2984C29.812 16.6509 29.2528 16.8528 28.648 16.8528C28.0423 16.8528 27.4829 16.6507 27.1143 16.2984C26.8107 16.0092 26.3417 15.8438 25.8269 15.8438C25.3125 15.8438 24.8429 16.0095 24.5396 16.2984C24.2465 16.5784 23.8189 16.729 23.3581 16.7931L26.3876 21.0788C27.09 20.8589 27.8483 20.7318 28.6783 20.7318C29.4486 20.7325 30.1756 20.8764 30.8796 21.0885ZM37.6984 33.4726C36.579 27.2064 33.6595 21.9117 28.6787 21.9117C23.6957 21.9117 21.272 26.9994 19.6576 33.4726C18.3941 38.5384 21.1065 41.1562 28.6792 41.1562C36.7758 41.1562 38.6172 38.6191 37.6984 33.4726Z" fill="#CC5500"/>
</svg>
