<svg width="64" height="64" viewBox="0 0 64 64" fill="none" xmlns="http://www.w3.org/2000/svg">
<circle cx="32" cy="32" r="32" fill="#FFF5EF"/>
<path d="M46.5884 20.5618L42.1928 24.9574L39.3156 24.1864L38.5445 21.3091L42.9401 16.9135C40.6911 16.0598 38.0537 16.5331 36.2421 18.3442C34.3915 20.1948 33.9329 22.9096 34.8643 25.1895L23.8642 36.1902C22.0482 35.6199 19.985 36.051 18.5458 37.4902C17.0288 39.0072 16.6322 41.2158 17.3476 43.0993L21.0287 39.4182L23.4385 40.064L24.0843 42.4737L20.4032 46.1549C22.2866 46.8698 24.4951 46.4732 26.0122 44.9567C27.4515 43.5174 27.8826 41.4548 27.3122 39.6383L38.3129 28.6376C40.5928 29.5694 43.3075 29.1104 45.1581 27.2598C46.9688 25.4483 47.4426 22.8108 46.5884 20.5618Z" fill="#CC5500"/>
<path d="M24.6714 28.4794L27.9474 25.2034L26.7484 20.7283L22.2733 19.5293L18.9973 22.8053L20.1963 27.2804L24.6714 28.4794ZM22.0605 22.5924C22.8401 21.8128 24.1043 21.8128 24.8834 22.5924C25.663 23.372 25.663 24.6362 24.8834 25.4157C24.1038 26.1953 22.8396 26.1953 22.0601 25.4157C21.2809 24.6362 21.2809 23.372 22.0605 22.5924Z" fill="#CC5500"/>
<path d="M35.2788 37.5078V42.1409L39.2909 44.4572L43.3029 42.1409V37.5078L39.2909 35.1914L35.2788 37.5078ZM41.2874 39.8245C41.2874 40.9271 40.3937 41.8207 39.2913 41.8207C38.1888 41.8207 37.2952 40.927 37.2952 39.8245C37.2952 38.722 38.1889 37.8284 39.2913 37.8284C40.3938 37.8279 41.2874 38.722 41.2874 39.8245Z" fill="#CC5500"/>
</svg>
