<svg width="64" height="64" viewBox="0 0 64 64" fill="none" xmlns="http://www.w3.org/2000/svg">
<circle cx="32" cy="32" r="32" fill="#FFF5EF"/>
<path d="M31.9523 33.18V45.415L41.6929 43.5665V37.6052C41.6929 37.3556 41.9103 37.1618 42.1582 37.1903L43.3566 37.3758C43.5674 37.4 43.7266 37.5784 43.7266 37.7906V44.716C43.7266 44.9128 43.5892 45.0829 43.3968 45.1244L32.7339 47.4171C32.2186 47.5279 31.6858 47.5291 31.17 47.4206L20.6215 45.2017C20.4322 45.1619 20.295 44.9972 20.29 44.8038L20.1077 37.7705C20.102 37.5499 20.2688 37.3629 20.4887 37.3436L29.4489 36.5563C29.6043 36.5426 29.7391 36.4435 29.7985 36.2992L31.1484 33.021C31.3227 32.598 31.9523 32.7225 31.9523 33.18ZM20.0064 29.1741L17.1946 35.1844C17.0571 35.4781 17.2922 35.8095 17.6149 35.7769L28.1746 34.7099C28.3239 34.6948 28.4535 34.6009 28.5144 34.4638L31.9121 26.8093L20.3092 28.9404C20.1764 28.9648 20.0636 29.0518 20.0064 29.1741ZM31.9121 26.8092L35.5074 34.7032C35.5702 34.8411 35.7029 34.9342 35.854 34.9464L46.3937 35.7939C46.7114 35.8195 46.9394 35.4943 46.8072 35.2043L44.0585 29.1782C44.0016 29.0536 43.8873 28.9648 43.7525 28.9405L31.9121 26.8092ZM28.9578 20.5764L31.5673 25.0952C31.7682 25.4431 32.2705 25.4431 32.4714 25.0952L35.0803 20.5764C35.2813 20.2284 35.0301 19.7934 34.6283 19.7934H33.324V17.0221C33.324 16.7337 33.0904 16.5 32.802 16.5H31.2361C30.9478 16.5 30.7141 16.7337 30.7141 17.022V19.7933H29.4098C29.008 19.7933 28.7568 20.2284 28.9578 20.5764Z" fill="#CC5500"/>
</svg>
